<!-- Generator: Adobe Illustrator 24.2.0, SVG Export Plug-In . SVG Version: 6.00 Build 0)  -->
<svg version="1.1" id="Layer_1" xmlns="http://www.w3.org/2000/svg" xmlns:xlink="http://www.w3.org/1999/xlink" x="0px" y="0px"
	 viewBox="0 0 365 80" style="enable-background:new 0 0 365 80;" xml:space="preserve">
<style type="text/css">
	.st0{fill:#E6E6E5;}
</style>
<path class="st0" d="M10,0.83C7.7,0.83,5.83,2.7,5.83,5S7.7,9.17,10,9.17S14.17,7.3,14.17,5S12.3,0.83,10,0.83z M10,6.88
	C8.96,6.88,8.13,6.04,8.13,5S8.96,3.13,10,3.13S11.88,3.96,11.88,5S11.04,6.88,10,6.88z M10,4.58C9.77,4.58,9.58,4.77,9.58,5
	S9.77,5.42,10,5.42S10.42,5.23,10.42,5S10.23,4.58,10,4.58z"/>
<path class="st0" d="M10,21.25v3.87C9.8,25.05,9.6,25,9.38,25c-1.04,0-1.88,0.84-1.88,1.88s0.84,1.88,1.88,1.88
	c0.96,0,1.75-0.73,1.85-1.67h0.02V22.5h1.67v-1.25H10z"/>
<path class="st0" d="M7.92,67.5h0.83v-5H7.92V67.5z M9.58,69.17h0.83v-8.33H9.58V69.17z M6.25,65.83h0.83v-1.67H6.25V65.83z
	 M11.25,67.5h0.83v-5h-0.83V67.5z M12.92,64.17v1.67h0.83v-1.67H12.92z"/>
<path class="st0" d="M6.35,42.56c-0.3,0.12-0.52,0.42-0.52,0.77v5c0,0.46,0.37,0.83,0.83,0.83h6.67c0.46,0,0.83-0.38,0.83-0.83v-5
	c0-0.46-0.37-0.83-0.83-0.83H8.46l3.44-1.39l-0.28-0.69L6.35,42.56z M7.92,48.33c-0.69,0-1.25-0.56-1.25-1.25
	c0-0.69,0.56-1.25,1.25-1.25s1.25,0.56,1.25,1.25C9.17,47.78,8.61,48.33,7.92,48.33z M13.33,45H12.5v-0.83h-0.83V45h-5v-1.67h6.67
	V45z"/>
<path class="st0" d="M22.92,72.92h4.17v1.25l1.67-1.67l-1.67-1.67v1.25h-5v2.5h0.83V72.92z M27.08,77.08h-4.17v-1.25l-1.67,1.67
	l1.67,1.67v-1.25h5v-2.5h-0.83V77.08z"/>
<path class="st0" d="M43.33,0.83h-5c-0.46,0-0.83,0.38-0.83,0.83v5c0,0.46,0.38,0.83,0.83,0.83h5c0.46,0,0.83-0.38,0.83-0.83v-5
	C44.17,1.21,43.79,0.83,43.33,0.83z M42.5,2.92h-1.25v2.29c0,0.57-0.47,1.04-1.04,1.04c-0.57,0-1.04-0.47-1.04-1.04
	s0.47-1.04,1.04-1.04c0.24,0,0.45,0.08,0.63,0.21v-2.3h1.67V2.92z M36.67,2.5h-0.83v5.83c0,0.46,0.38,0.83,0.83,0.83h5.83V8.33
	h-5.83V2.5z"/>
<path class="st0" d="M23.33,12.08v5.83L27.92,15L23.33,12.08z"/>
<path class="st0" d="M26.25,52.5h-5v0.83h5V52.5z M26.25,54.17h-5V55h5V54.17z M21.25,56.67h3.33v-0.83h-3.33V56.67z M27.08,52.5
	v3.41c-0.13-0.05-0.27-0.08-0.42-0.08c-0.69,0-1.25,0.56-1.25,1.25c0,0.69,0.56,1.25,1.25,1.25c0.69,0,1.25-0.56,1.25-1.25v-3.75
	h1.25V52.5H27.08z"/>
<path class="st0" d="M27.08,30.83h-4.17c-0.46,0-0.83,0.38-0.83,0.83v6.67c0,0.46,0.38,0.83,0.83,0.83l4.17,0
	c0.46,0,0.83-0.38,0.83-0.83v-6.67C27.92,31.21,27.54,30.83,27.08,30.83z M25,31.67c0.46,0,0.83,0.38,0.83,0.83
	s-0.38,0.83-0.83,0.83c-0.46,0-0.83-0.38-0.83-0.83S24.54,31.67,25,31.67z M25,38.33c-1.15,0-2.08-0.93-2.08-2.08
	s0.93-2.08,2.08-2.08s2.08,0.93,2.08,2.08S26.15,38.33,25,38.33z M25,35c-0.69,0-1.25,0.56-1.25,1.25S24.31,37.5,25,37.5
	c0.69,0,1.25-0.56,1.25-1.25S25.69,35,25,35z"/>
<path class="st0" d="M40,20.42c-2.07,0-3.75,1.68-3.75,3.75v2.92c0,0.69,0.56,1.25,1.25,1.25h1.25V25h-1.67v-0.83
	c0-1.61,1.3-2.92,2.92-2.92s2.92,1.3,2.92,2.92V25h-1.67v3.33h1.25c0.69,0,1.25-0.56,1.25-1.25v-2.92
	C43.75,22.1,42.07,20.42,40,20.42z"/>
<path class="st0" d="M43.75,41.25h-7.5c-0.46,0-0.83,0.38-0.83,0.83v5.83c0,0.46,0.38,0.83,0.83,0.83h7.5
	c0.46,0,0.83-0.38,0.83-0.83v-5.83C44.58,41.63,44.21,41.25,43.75,41.25z M43.75,47.92h-7.5v-5.83h7.5V47.92z M38.33,46.25
	c0-0.69,0.56-1.25,1.25-1.25c0.15,0,0.29,0.03,0.42,0.08V42.5h2.08v0.83h-1.25v2.93c-0.01,0.68-0.56,1.24-1.25,1.24
	C38.89,47.5,38.33,46.94,38.33,46.25z"/>
<path class="st0" d="M40,60.83c-2.3,0-4.17,1.87-4.17,4.17c0,2.3,1.87,4.17,4.17,4.17s4.17-1.87,4.17-4.17
	C44.17,62.7,42.3,60.83,40,60.83z M40,66.88c-1.04,0-1.88-0.84-1.88-1.88s0.84-1.88,1.88-1.88s1.88,0.84,1.88,1.88
	S41.04,66.88,40,66.88z M40,64.58c-0.23,0-0.42,0.19-0.42,0.42s0.19,0.42,0.42,0.42s0.42-0.19,0.42-0.42S40.23,64.58,40,64.58z"/>
<path class="st0" d="M55,11.25v3.87C54.8,15.05,54.6,15,54.38,15c-1.04,0-1.88,0.84-1.88,1.88s0.84,1.88,1.88,1.88
	c0.96,0,1.75-0.73,1.85-1.67h0.02V12.5h1.67v-1.25H55z"/>
<path class="st0" d="M52.92,57.5h0.83v-5h-0.83V57.5z M54.58,59.17h0.83v-8.33h-0.83V59.17z M51.25,55.83h0.83v-1.67h-0.83V55.83z
	 M56.25,57.5h0.83v-5h-0.83V57.5z M57.92,54.17v1.67h0.83v-1.67H57.92z"/>
<path class="st0" d="M51.35,32.56c-0.3,0.12-0.52,0.42-0.52,0.77v5c0,0.46,0.37,0.83,0.83,0.83h6.67c0.46,0,0.83-0.38,0.83-0.83v-5
	c0-0.46-0.37-0.83-0.83-0.83h-4.88l3.44-1.39l-0.28-0.69L51.35,32.56z M52.92,38.33c-0.69,0-1.25-0.56-1.25-1.25
	c0-0.69,0.56-1.25,1.25-1.25c0.69,0,1.25,0.56,1.25,1.25C54.17,37.78,53.61,38.33,52.92,38.33z M58.33,35H57.5v-0.83h-0.83V35h-5
	v-1.67h6.67V35z"/>
<path class="st0" d="M53.33,72.08v5.83L57.92,75L53.33,72.08z"/>
<path class="st0" d="M67.92,42.92h4.17v1.25l1.67-1.67l-1.67-1.67v1.25h-5v2.5h0.83V42.92z M72.08,47.08h-4.17v-1.25l-1.67,1.67
	l1.67,1.67v-1.25h5v-2.5h-0.83V47.08z"/>
<path class="st0" d="M71.25,22.5h-5v0.83h5V22.5z M71.25,24.17h-5V25h5V24.17z M66.25,26.67h3.33v-0.83h-3.33V26.67z M72.08,22.5
	v3.41c-0.13-0.05-0.27-0.07-0.42-0.07c-0.69,0-1.25,0.56-1.25,1.25c0,0.69,0.56,1.25,1.25,1.25s1.25-0.56,1.25-1.25v-3.75h1.25V22.5
	H72.08z"/>
<path class="st0" d="M72.08,0.83h-4.17c-0.46,0-0.83,0.38-0.83,0.83v6.67c0,0.46,0.38,0.83,0.83,0.83l4.17,0
	c0.46,0,0.83-0.38,0.83-0.83V1.67C72.92,1.21,72.54,0.83,72.08,0.83z M70,1.67c0.46,0,0.83,0.38,0.83,0.83S70.46,3.33,70,3.33
	c-0.46,0-0.83-0.38-0.83-0.83S69.54,1.67,70,1.67z M70,8.33c-1.15,0-2.08-0.93-2.08-2.08S68.85,4.17,70,4.17s2.08,0.93,2.08,2.08
	S71.15,8.33,70,8.33z M70,5c-0.69,0-1.25,0.56-1.25,1.25S69.31,7.5,70,7.5s1.25-0.56,1.25-1.25S70.69,5,70,5z"/>
<path class="st0" d="M73.33,60.83h-5c-0.46,0-0.83,0.38-0.83,0.83v5c0,0.46,0.38,0.83,0.83,0.83h5c0.46,0,0.83-0.38,0.83-0.83v-5
	C74.17,61.21,73.79,60.83,73.33,60.83z M72.5,62.92h-1.25v2.29c0,0.57-0.47,1.04-1.04,1.04c-0.58,0-1.04-0.47-1.04-1.04
	c0-0.58,0.47-1.04,1.04-1.04c0.24,0,0.45,0.08,0.63,0.21v-2.3h1.67V62.92z M66.67,62.5h-0.83v5.83c0,0.46,0.38,0.83,0.83,0.83h5.83
	v-0.83h-5.83V62.5z"/>
<path class="st0" d="M85,10.42c-2.07,0-3.75,1.68-3.75,3.75v2.92c0,0.69,0.56,1.25,1.25,1.25h1.25V15h-1.67v-0.83
	c0-1.61,1.3-2.92,2.92-2.92s2.92,1.3,2.92,2.92V15h-1.67v3.33h1.25c0.69,0,1.25-0.56,1.25-1.25v-2.92
	C88.75,12.1,87.07,10.42,85,10.42z"/>
<path class="st0" d="M88.75,31.25h-7.5c-0.46,0-0.83,0.38-0.83,0.83v5.83c0,0.46,0.38,0.83,0.83,0.83h7.5
	c0.46,0,0.83-0.38,0.83-0.83v-5.83C89.58,31.63,89.21,31.25,88.75,31.25z M88.75,37.92h-7.5v-5.83h7.5V37.92z M83.33,36.25
	c0-0.69,0.56-1.25,1.25-1.25c0.15,0,0.29,0.03,0.42,0.08V32.5h2.08v0.83h-1.25v2.93c-0.01,0.68-0.56,1.24-1.25,1.24
	C83.89,37.5,83.33,36.94,83.33,36.25z"/>
<path class="st0" d="M85,50.83c-2.3,0-4.17,1.87-4.17,4.17s1.87,4.17,4.17,4.17s4.17-1.87,4.17-4.17S87.3,50.83,85,50.83z M85,56.88
	c-1.04,0-1.88-0.84-1.88-1.88s0.84-1.88,1.88-1.88s1.88,0.84,1.88,1.88S86.04,56.88,85,56.88z M85,54.58
	c-0.23,0-0.42,0.19-0.42,0.42s0.19,0.42,0.42,0.42s0.42-0.19,0.42-0.42S85.23,54.58,85,54.58z"/>
<path class="st0" d="M85,71.25v3.87C84.8,75.05,84.6,75,84.38,75c-1.04,0-1.88,0.84-1.88,1.88s0.84,1.88,1.88,1.88
	c0.96,0,1.75-0.73,1.85-1.67h0.02V72.5h1.67v-1.25H85z"/>
<path class="st0" d="M100,0.83c-2.3,0-4.17,1.87-4.17,4.17S97.7,9.17,100,9.17s4.17-1.87,4.17-4.17S102.3,0.83,100,0.83z M100,6.88
	c-1.04,0-1.88-0.84-1.88-1.88s0.84-1.88,1.88-1.88s1.88,0.84,1.88,1.88S101.04,6.88,100,6.88z M100,4.58
	c-0.23,0-0.42,0.19-0.42,0.42s0.19,0.42,0.42,0.42s0.42-0.19,0.42-0.42S100.23,4.58,100,4.58z"/>
<path class="st0" d="M100,21.25v3.87C99.8,25.05,99.6,25,99.38,25c-1.04,0-1.88,0.84-1.88,1.88s0.84,1.88,1.88,1.88
	c0.96,0,1.75-0.73,1.85-1.67h0.02V22.5h1.67v-1.25H100z"/>
<path class="st0" d="M97.92,67.5h0.83v-5h-0.83V67.5z M99.58,69.17h0.83v-8.33h-0.83V69.17z M96.25,65.83h0.83v-1.67h-0.83V65.83z
	 M101.25,67.5h0.83v-5h-0.83V67.5z M102.92,64.17v1.67h0.83v-1.67H102.92z"/>
<path class="st0" d="M96.35,42.56c-0.3,0.12-0.52,0.42-0.52,0.77v5c0,0.46,0.37,0.83,0.83,0.83h6.67c0.46,0,0.83-0.38,0.83-0.83v-5
	c0-0.46-0.37-0.83-0.83-0.83h-4.88l3.44-1.39l-0.28-0.69L96.35,42.56z M97.92,48.33c-0.69,0-1.25-0.56-1.25-1.25
	c0-0.69,0.56-1.25,1.25-1.25s1.25,0.56,1.25,1.25C99.17,47.78,98.61,48.33,97.92,48.33z M103.33,45h-0.83v-0.83h-0.83V45h-5v-1.67
	h6.67V45z"/>
<path class="st0" d="M112.92,72.92h4.17v1.25l1.67-1.67l-1.67-1.67v1.25h-5v2.5h0.83V72.92z M117.08,77.08h-4.17v-1.25l-1.67,1.67
	l1.67,1.67v-1.25h5v-2.5h-0.83V77.08z"/>
<path class="st0" d="M133.33,0.83h-5c-0.46,0-0.83,0.38-0.83,0.83v5c0,0.46,0.38,0.83,0.83,0.83h5c0.46,0,0.83-0.38,0.83-0.83v-5
	C134.17,1.21,133.79,0.83,133.33,0.83z M132.5,2.92h-1.25v2.29c0,0.57-0.47,1.04-1.04,1.04c-0.57,0-1.04-0.47-1.04-1.04
	s0.47-1.04,1.04-1.04c0.24,0,0.45,0.08,0.63,0.21v-2.3h1.67V2.92z M126.67,2.5h-0.83v5.83c0,0.46,0.38,0.83,0.83,0.83h5.83V8.33
	h-5.83V2.5z"/>
<path class="st0" d="M113.33,12.08v5.83l4.58-2.92L113.33,12.08z"/>
<path class="st0" d="M116.25,52.5h-5v0.83h5V52.5z M116.25,54.17h-5V55h5V54.17z M111.25,56.67h3.33v-0.83h-3.33V56.67z
	 M117.08,52.5v3.41c-0.13-0.05-0.27-0.08-0.42-0.08c-0.69,0-1.25,0.56-1.25,1.25c0,0.69,0.56,1.25,1.25,1.25s1.25-0.56,1.25-1.25
	v-3.75h1.25V52.5H117.08z"/>
<path class="st0" d="M117.08,30.83h-4.17c-0.46,0-0.83,0.38-0.83,0.83v6.67c0,0.46,0.38,0.83,0.83,0.83l4.17,0
	c0.46,0,0.83-0.38,0.83-0.83v-6.67C117.92,31.21,117.54,30.83,117.08,30.83z M115,31.67c0.46,0,0.83,0.38,0.83,0.83
	s-0.38,0.83-0.83,0.83c-0.46,0-0.83-0.38-0.83-0.83S114.54,31.67,115,31.67z M115,38.33c-1.15,0-2.08-0.93-2.08-2.08
	s0.93-2.08,2.08-2.08s2.08,0.93,2.08,2.08S116.15,38.33,115,38.33z M115,35c-0.69,0-1.25,0.56-1.25,1.25s0.56,1.25,1.25,1.25
	s1.25-0.56,1.25-1.25S115.69,35,115,35z"/>
<path class="st0" d="M130,20.42c-2.07,0-3.75,1.68-3.75,3.75v2.92c0,0.69,0.56,1.25,1.25,1.25h1.25V25h-1.67v-0.83
	c0-1.61,1.3-2.92,2.92-2.92s2.92,1.3,2.92,2.92V25h-1.67v3.33h1.25c0.69,0,1.25-0.56,1.25-1.25v-2.92
	C133.75,22.1,132.07,20.42,130,20.42z"/>
<path class="st0" d="M133.75,41.25h-7.5c-0.46,0-0.83,0.38-0.83,0.83v5.83c0,0.46,0.38,0.83,0.83,0.83h7.5
	c0.46,0,0.83-0.38,0.83-0.83v-5.83C134.58,41.63,134.21,41.25,133.75,41.25z M133.75,47.92h-7.5v-5.83h7.5V47.92z M128.33,46.25
	c0-0.69,0.56-1.25,1.25-1.25c0.15,0,0.29,0.03,0.42,0.08V42.5h2.08v0.83h-1.25v2.93c-0.01,0.68-0.56,1.24-1.25,1.24
	C128.89,47.5,128.33,46.94,128.33,46.25z"/>
<path class="st0" d="M130,60.83c-2.3,0-4.17,1.87-4.17,4.17c0,2.3,1.87,4.17,4.17,4.17s4.17-1.87,4.17-4.17
	C134.17,62.7,132.3,60.83,130,60.83z M130,66.88c-1.04,0-1.88-0.84-1.88-1.88s0.84-1.88,1.88-1.88s1.88,0.84,1.88,1.88
	S131.04,66.88,130,66.88z M130,64.58c-0.23,0-0.42,0.19-0.42,0.42s0.19,0.42,0.42,0.42s0.42-0.19,0.42-0.42S130.23,64.58,130,64.58z
	"/>
<path class="st0" d="M145,11.25v3.87c-0.2-0.07-0.4-0.12-0.63-0.12c-1.04,0-1.88,0.84-1.88,1.88s0.84,1.88,1.88,1.88
	c0.96,0,1.75-0.73,1.85-1.67h0.02V12.5h1.67v-1.25H145z"/>
<path class="st0" d="M142.92,57.5h0.83v-5h-0.83V57.5z M144.58,59.17h0.83v-8.33h-0.83V59.17z M141.25,55.83h0.83v-1.67h-0.83V55.83
	z M146.25,57.5h0.83v-5h-0.83V57.5z M147.92,54.17v1.67h0.83v-1.67H147.92z"/>
<path class="st0" d="M141.35,32.56c-0.3,0.12-0.52,0.42-0.52,0.77v5c0,0.46,0.37,0.83,0.83,0.83h6.67c0.46,0,0.83-0.38,0.83-0.83v-5
	c0-0.46-0.37-0.83-0.83-0.83h-4.88l3.44-1.39l-0.28-0.69L141.35,32.56z M142.92,38.33c-0.69,0-1.25-0.56-1.25-1.25
	c0-0.69,0.56-1.25,1.25-1.25s1.25,0.56,1.25,1.25C144.17,37.78,143.61,38.33,142.92,38.33z M148.33,35h-0.83v-0.83h-0.83V35h-5
	v-1.67h6.67V35z"/>
<path class="st0" d="M143.33,72.08v5.83l4.58-2.92L143.33,72.08z"/>
<path class="st0" d="M157.92,42.92h4.17v1.25l1.67-1.67l-1.67-1.67v1.25h-5v2.5h0.83V42.92z M162.08,47.08h-4.17v-1.25l-1.67,1.67
	l1.67,1.67v-1.25h5v-2.5h-0.83V47.08z"/>
<path class="st0" d="M161.25,22.5h-5v0.83h5V22.5z M161.25,24.17h-5V25h5V24.17z M156.25,26.67h3.33v-0.83h-3.33V26.67z
	 M162.08,22.5v3.41c-0.13-0.05-0.27-0.07-0.42-0.07c-0.69,0-1.25,0.56-1.25,1.25c0,0.69,0.56,1.25,1.25,1.25s1.25-0.56,1.25-1.25
	v-3.75h1.25V22.5H162.08z"/>
<path class="st0" d="M162.08,0.83h-4.17c-0.46,0-0.83,0.38-0.83,0.83v6.67c0,0.46,0.38,0.83,0.83,0.83l4.17,0
	c0.46,0,0.83-0.38,0.83-0.83V1.67C162.92,1.21,162.54,0.83,162.08,0.83z M160,1.67c0.46,0,0.83,0.38,0.83,0.83s-0.38,0.83-0.83,0.83
	c-0.46,0-0.83-0.38-0.83-0.83S159.54,1.67,160,1.67z M160,8.33c-1.15,0-2.08-0.93-2.08-2.08s0.93-2.08,2.08-2.08
	s2.08,0.93,2.08,2.08S161.15,8.33,160,8.33z M160,5c-0.69,0-1.25,0.56-1.25,1.25S159.31,7.5,160,7.5s1.25-0.56,1.25-1.25
	S160.69,5,160,5z"/>
<path class="st0" d="M163.33,60.83h-5c-0.46,0-0.83,0.38-0.83,0.83v5c0,0.46,0.38,0.83,0.83,0.83h5c0.46,0,0.83-0.38,0.83-0.83v-5
	C164.17,61.21,163.79,60.83,163.33,60.83z M162.5,62.92h-1.25v2.29c0,0.57-0.47,1.04-1.04,1.04c-0.57,0-1.04-0.47-1.04-1.04
	c0-0.58,0.47-1.04,1.04-1.04c0.24,0,0.45,0.08,0.63,0.21v-2.3h1.67V62.92z M156.67,62.5h-0.83v5.83c0,0.46,0.38,0.83,0.83,0.83h5.83
	v-0.83h-5.83V62.5z"/>
<path class="st0" d="M175,10.42c-2.07,0-3.75,1.68-3.75,3.75v2.92c0,0.69,0.56,1.25,1.25,1.25h1.25V15h-1.67v-0.83
	c0-1.61,1.3-2.92,2.92-2.92s2.92,1.3,2.92,2.92V15h-1.67v3.33h1.25c0.69,0,1.25-0.56,1.25-1.25v-2.92
	C178.75,12.1,177.07,10.42,175,10.42z"/>
<path class="st0" d="M178.75,31.25h-7.5c-0.46,0-0.83,0.38-0.83,0.83v5.83c0,0.46,0.38,0.83,0.83,0.83h7.5
	c0.46,0,0.83-0.38,0.83-0.83v-5.83C179.58,31.63,179.21,31.25,178.75,31.25z M178.75,37.92h-7.5v-5.83h7.5V37.92z M173.33,36.25
	c0-0.69,0.56-1.25,1.25-1.25c0.15,0,0.29,0.03,0.42,0.08V32.5h2.08v0.83h-1.25v2.93c-0.01,0.68-0.56,1.24-1.25,1.24
	C173.89,37.5,173.33,36.94,173.33,36.25z"/>
<path class="st0" d="M175,50.83c-2.3,0-4.17,1.87-4.17,4.17s1.87,4.17,4.17,4.17s4.17-1.87,4.17-4.17S177.3,50.83,175,50.83z
	 M175,56.88c-1.04,0-1.88-0.84-1.88-1.88s0.84-1.88,1.88-1.88s1.88,0.84,1.88,1.88S176.04,56.88,175,56.88z M175,54.58
	c-0.23,0-0.42,0.19-0.42,0.42s0.19,0.42,0.42,0.42s0.42-0.19,0.42-0.42S175.23,54.58,175,54.58z"/>
<path class="st0" d="M175,71.25v3.87c-0.2-0.07-0.4-0.12-0.63-0.12c-1.04,0-1.88,0.84-1.88,1.88s0.84,1.88,1.88,1.88
	c0.96,0,1.75-0.73,1.85-1.67h0.02V72.5h1.67v-1.25H175z"/>
<path class="st0" d="M190,0.83c-2.3,0-4.17,1.87-4.17,4.17s1.87,4.17,4.17,4.17s4.17-1.87,4.17-4.17S192.3,0.83,190,0.83z M190,6.88
	c-1.04,0-1.88-0.84-1.88-1.88s0.84-1.88,1.88-1.88s1.88,0.84,1.88,1.88S191.04,6.88,190,6.88z M190,4.58
	c-0.23,0-0.42,0.19-0.42,0.42s0.19,0.42,0.42,0.42s0.42-0.19,0.42-0.42S190.23,4.58,190,4.58z"/>
<path class="st0" d="M190,21.25v3.87c-0.2-0.07-0.4-0.12-0.63-0.12c-1.04,0-1.88,0.84-1.88,1.88s0.84,1.88,1.88,1.88
	c0.96,0,1.75-0.73,1.85-1.67h0.02V22.5h1.67v-1.25H190z"/>
<path class="st0" d="M187.92,67.5h0.83v-5h-0.83V67.5z M189.58,69.17h0.83v-8.33h-0.83V69.17z M186.25,65.83h0.83v-1.67h-0.83V65.83
	z M191.25,67.5h0.83v-5h-0.83V67.5z M192.92,64.17v1.67h0.83v-1.67H192.92z"/>
<path class="st0" d="M186.35,42.56c-0.3,0.12-0.52,0.42-0.52,0.77v5c0,0.46,0.37,0.83,0.83,0.83h6.67c0.46,0,0.83-0.38,0.83-0.83v-5
	c0-0.46-0.37-0.83-0.83-0.83h-4.88l3.44-1.39l-0.28-0.69L186.35,42.56z M187.92,48.33c-0.69,0-1.25-0.56-1.25-1.25
	c0-0.69,0.56-1.25,1.25-1.25s1.25,0.56,1.25,1.25C189.17,47.78,188.61,48.33,187.92,48.33z M193.33,45h-0.83v-0.83h-0.83V45h-5
	v-1.67h6.67V45z"/>
<path class="st0" d="M202.92,72.92h4.17v1.25l1.67-1.67l-1.67-1.67v1.25h-5v2.5h0.83V72.92z M207.08,77.08h-4.17v-1.25l-1.67,1.67
	l1.67,1.67v-1.25h5v-2.5h-0.83V77.08z"/>
<path class="st0" d="M223.33,0.83h-5c-0.46,0-0.83,0.38-0.83,0.83v5c0,0.46,0.38,0.83,0.83,0.83h5c0.46,0,0.83-0.38,0.83-0.83v-5
	C224.17,1.21,223.79,0.83,223.33,0.83z M222.5,2.92h-1.25v2.29c0,0.57-0.47,1.04-1.04,1.04c-0.57,0-1.04-0.47-1.04-1.04
	s0.47-1.04,1.04-1.04c0.24,0,0.45,0.08,0.63,0.21v-2.3h1.67V2.92z M216.67,2.5h-0.83v5.83c0,0.46,0.38,0.83,0.83,0.83h5.83V8.33
	h-5.83V2.5z"/>
<path class="st0" d="M203.33,12.08v5.83l4.58-2.92L203.33,12.08z"/>
<path class="st0" d="M206.25,52.5h-5v0.83h5V52.5z M206.25,54.17h-5V55h5V54.17z M201.25,56.67h3.33v-0.83h-3.33V56.67z
	 M207.08,52.5v3.41c-0.13-0.05-0.27-0.08-0.42-0.08c-0.69,0-1.25,0.56-1.25,1.25c0,0.69,0.56,1.25,1.25,1.25s1.25-0.56,1.25-1.25
	v-3.75h1.25V52.5H207.08z"/>
<path class="st0" d="M207.08,30.83h-4.17c-0.46,0-0.83,0.38-0.83,0.83v6.67c0,0.46,0.38,0.83,0.83,0.83l4.17,0
	c0.46,0,0.83-0.38,0.83-0.83v-6.67C207.92,31.21,207.54,30.83,207.08,30.83z M205,31.67c0.46,0,0.83,0.38,0.83,0.83
	s-0.38,0.83-0.83,0.83c-0.46,0-0.83-0.38-0.83-0.83S204.54,31.67,205,31.67z M205,38.33c-1.15,0-2.08-0.93-2.08-2.08
	s0.93-2.08,2.08-2.08s2.08,0.93,2.08,2.08S206.15,38.33,205,38.33z M205,35c-0.69,0-1.25,0.56-1.25,1.25s0.56,1.25,1.25,1.25
	s1.25-0.56,1.25-1.25S205.69,35,205,35z"/>
<path class="st0" d="M220,20.42c-2.07,0-3.75,1.68-3.75,3.75v2.92c0,0.69,0.56,1.25,1.25,1.25h1.25V25h-1.67v-0.83
	c0-1.61,1.3-2.92,2.92-2.92s2.92,1.3,2.92,2.92V25h-1.67v3.33h1.25c0.69,0,1.25-0.56,1.25-1.25v-2.92
	C223.75,22.1,222.07,20.42,220,20.42z"/>
<path class="st0" d="M223.75,41.25h-7.5c-0.46,0-0.83,0.38-0.83,0.83v5.83c0,0.46,0.38,0.83,0.83,0.83h7.5
	c0.46,0,0.83-0.38,0.83-0.83v-5.83C224.58,41.63,224.21,41.25,223.75,41.25z M223.75,47.92h-7.5v-5.83h7.5V47.92z M218.33,46.25
	c0-0.69,0.56-1.25,1.25-1.25c0.15,0,0.29,0.03,0.42,0.08V42.5h2.08v0.83h-1.25v2.93c-0.01,0.68-0.56,1.24-1.25,1.24
	C218.89,47.5,218.33,46.94,218.33,46.25z"/>
<path class="st0" d="M220,60.83c-2.3,0-4.17,1.87-4.17,4.17c0,2.3,1.87,4.17,4.17,4.17s4.17-1.87,4.17-4.17
	C224.17,62.7,222.3,60.83,220,60.83z M220,66.88c-1.04,0-1.88-0.84-1.88-1.88s0.84-1.88,1.88-1.88s1.88,0.84,1.88,1.88
	S221.04,66.88,220,66.88z M220,64.58c-0.23,0-0.42,0.19-0.42,0.42s0.19,0.42,0.42,0.42s0.42-0.19,0.42-0.42S220.23,64.58,220,64.58z
	"/>
<path class="st0" d="M235,11.25v3.87c-0.2-0.07-0.4-0.12-0.63-0.12c-1.04,0-1.88,0.84-1.88,1.88s0.84,1.88,1.88,1.88
	c0.96,0,1.75-0.73,1.85-1.67h0.02V12.5h1.67v-1.25H235z"/>
<path class="st0" d="M232.92,57.5h0.83v-5h-0.83V57.5z M234.58,59.17h0.83v-8.33h-0.83V59.17z M231.25,55.83h0.83v-1.67h-0.83V55.83
	z M236.25,57.5h0.83v-5h-0.83V57.5z M237.92,54.17v1.67h0.83v-1.67H237.92z"/>
<path class="st0" d="M231.35,32.56c-0.3,0.12-0.52,0.42-0.52,0.77v5c0,0.46,0.37,0.83,0.83,0.83h6.67c0.46,0,0.83-0.38,0.83-0.83v-5
	c0-0.46-0.37-0.83-0.83-0.83h-4.88l3.44-1.39l-0.28-0.69L231.35,32.56z M232.92,38.33c-0.69,0-1.25-0.56-1.25-1.25
	c0-0.69,0.56-1.25,1.25-1.25s1.25,0.56,1.25,1.25C234.17,37.78,233.61,38.33,232.92,38.33z M238.33,35h-0.83v-0.83h-0.83V35h-5
	v-1.67h6.67V35z"/>
<path class="st0" d="M233.33,72.08v5.83l4.58-2.92L233.33,72.08z"/>
<path class="st0" d="M247.92,42.92h4.17v1.25l1.67-1.67l-1.67-1.67v1.25h-5v2.5h0.83V42.92z M252.08,47.08h-4.17v-1.25l-1.67,1.67
	l1.67,1.67v-1.25h5v-2.5h-0.83V47.08z"/>
<path class="st0" d="M251.25,22.5h-5v0.83h5V22.5z M251.25,24.17h-5V25h5V24.17z M246.25,26.67h3.33v-0.83h-3.33V26.67z
	 M252.08,22.5v3.41c-0.13-0.05-0.27-0.07-0.42-0.07c-0.69,0-1.25,0.56-1.25,1.25c0,0.69,0.56,1.25,1.25,1.25s1.25-0.56,1.25-1.25
	v-3.75h1.25V22.5H252.08z"/>
<path class="st0" d="M252.08,0.83h-4.17c-0.46,0-0.83,0.38-0.83,0.83v6.67c0,0.46,0.38,0.83,0.83,0.83l4.17,0
	c0.46,0,0.83-0.38,0.83-0.83V1.67C252.92,1.21,252.54,0.83,252.08,0.83z M250,1.67c0.46,0,0.83,0.38,0.83,0.83s-0.38,0.83-0.83,0.83
	c-0.46,0-0.83-0.38-0.83-0.83S249.54,1.67,250,1.67z M250,8.33c-1.15,0-2.08-0.93-2.08-2.08s0.93-2.08,2.08-2.08
	s2.08,0.93,2.08,2.08S251.15,8.33,250,8.33z M250,5c-0.69,0-1.25,0.56-1.25,1.25S249.31,7.5,250,7.5s1.25-0.56,1.25-1.25
	S250.69,5,250,5z"/>
<path class="st0" d="M253.33,60.83h-5c-0.46,0-0.83,0.38-0.83,0.83v5c0,0.46,0.38,0.83,0.83,0.83h5c0.46,0,0.83-0.38,0.83-0.83v-5
	C254.17,61.21,253.79,60.83,253.33,60.83z M252.5,62.92h-1.25v2.29c0,0.57-0.47,1.04-1.04,1.04c-0.57,0-1.04-0.47-1.04-1.04
	c0-0.58,0.47-1.04,1.04-1.04c0.24,0,0.45,0.08,0.63,0.21v-2.3h1.67V62.92z M246.67,62.5h-0.83v5.83c0,0.46,0.38,0.83,0.83,0.83h5.83
	v-0.83h-5.83V62.5z"/>
<path class="st0" d="M265,10.42c-2.07,0-3.75,1.68-3.75,3.75v2.92c0,0.69,0.56,1.25,1.25,1.25h1.25V15h-1.67v-0.83
	c0-1.61,1.3-2.92,2.92-2.92s2.92,1.3,2.92,2.92V15h-1.67v3.33h1.25c0.69,0,1.25-0.56,1.25-1.25v-2.92
	C268.75,12.1,267.07,10.42,265,10.42z"/>
<path class="st0" d="M268.75,31.25h-7.5c-0.46,0-0.83,0.38-0.83,0.83v5.83c0,0.46,0.38,0.83,0.83,0.83h7.5
	c0.46,0,0.83-0.38,0.83-0.83v-5.83C269.58,31.63,269.21,31.25,268.75,31.25z M268.75,37.92h-7.5v-5.83h7.5V37.92z M263.33,36.25
	c0-0.69,0.56-1.25,1.25-1.25c0.15,0,0.29,0.03,0.42,0.08V32.5h2.08v0.83h-1.25v2.93c-0.01,0.68-0.56,1.24-1.25,1.24
	C263.89,37.5,263.33,36.94,263.33,36.25z"/>
<path class="st0" d="M265,50.83c-2.3,0-4.17,1.87-4.17,4.17s1.87,4.17,4.17,4.17s4.17-1.87,4.17-4.17S267.3,50.83,265,50.83z
	 M265,56.88c-1.04,0-1.88-0.84-1.88-1.88s0.84-1.88,1.88-1.88s1.88,0.84,1.88,1.88S266.04,56.88,265,56.88z M265,54.58
	c-0.23,0-0.42,0.19-0.42,0.42s0.19,0.42,0.42,0.42s0.42-0.19,0.42-0.42S265.23,54.58,265,54.58z"/>
<path class="st0" d="M265,71.25v3.87c-0.2-0.07-0.4-0.12-0.63-0.12c-1.04,0-1.88,0.84-1.88,1.88s0.84,1.88,1.88,1.88
	c0.96,0,1.75-0.73,1.85-1.67h0.02V72.5h1.67v-1.25H265z"/>
<path class="st0" d="M280,0.83c-2.3,0-4.17,1.87-4.17,4.17s1.87,4.17,4.17,4.17s4.17-1.87,4.17-4.17S282.3,0.83,280,0.83z M280,6.88
	c-1.04,0-1.88-0.84-1.88-1.88s0.84-1.88,1.88-1.88s1.88,0.84,1.88,1.88S281.04,6.88,280,6.88z M280,4.58
	c-0.23,0-0.42,0.19-0.42,0.42s0.19,0.42,0.42,0.42s0.42-0.19,0.42-0.42S280.23,4.58,280,4.58z"/>
<path class="st0" d="M280,21.25v3.87c-0.2-0.07-0.4-0.12-0.63-0.12c-1.04,0-1.88,0.84-1.88,1.88s0.84,1.88,1.88,1.88
	c0.96,0,1.75-0.73,1.85-1.67h0.02V22.5h1.67v-1.25H280z"/>
<path class="st0" d="M277.92,67.5h0.83v-5h-0.83V67.5z M279.58,69.17h0.83v-8.33h-0.83V69.17z M276.25,65.83h0.83v-1.67h-0.83V65.83
	z M281.25,67.5h0.83v-5h-0.83V67.5z M282.92,64.17v1.67h0.83v-1.67H282.92z"/>
<path class="st0" d="M276.35,42.56c-0.3,0.12-0.52,0.42-0.52,0.77v5c0,0.46,0.37,0.83,0.83,0.83h6.67c0.46,0,0.83-0.38,0.83-0.83v-5
	c0-0.46-0.37-0.83-0.83-0.83h-4.88l3.44-1.39l-0.28-0.69L276.35,42.56z M277.92,48.33c-0.69,0-1.25-0.56-1.25-1.25
	c0-0.69,0.56-1.25,1.25-1.25c0.69,0,1.25,0.56,1.25,1.25C279.17,47.78,278.61,48.33,277.92,48.33z M283.33,45h-0.83v-0.83h-0.83V45
	h-5v-1.67h6.67V45z"/>
<path class="st0" d="M292.92,72.92h4.17v1.25l1.67-1.67l-1.67-1.67v1.25h-5v2.5h0.83V72.92z M297.08,77.08h-4.17v-1.25l-1.67,1.67
	l1.67,1.67v-1.25h5v-2.5h-0.83V77.08z"/>
<path class="st0" d="M313.33,0.83h-5c-0.46,0-0.83,0.38-0.83,0.83v5c0,0.46,0.38,0.83,0.83,0.83h5c0.46,0,0.83-0.38,0.83-0.83v-5
	C314.17,1.21,313.79,0.83,313.33,0.83z M312.5,2.92h-1.25v2.29c0,0.57-0.47,1.04-1.04,1.04c-0.58,0-1.04-0.47-1.04-1.04
	s0.47-1.04,1.04-1.04c0.24,0,0.45,0.08,0.63,0.21v-2.3h1.67V2.92z M306.67,2.5h-0.83v5.83c0,0.46,0.38,0.83,0.83,0.83h5.83V8.33
	h-5.83V2.5z"/>
<path class="st0" d="M293.33,12.08v5.83l4.58-2.92L293.33,12.08z"/>
<path class="st0" d="M296.25,52.5h-5v0.83h5V52.5z M296.25,54.17h-5V55h5V54.17z M291.25,56.67h3.33v-0.83h-3.33V56.67z
	 M297.08,52.5v3.41c-0.13-0.05-0.27-0.08-0.42-0.08c-0.69,0-1.25,0.56-1.25,1.25c0,0.69,0.56,1.25,1.25,1.25
	c0.69,0,1.25-0.56,1.25-1.25v-3.75h1.25V52.5H297.08z"/>
<path class="st0" d="M297.08,30.83h-4.17c-0.46,0-0.83,0.38-0.83,0.83v6.67c0,0.46,0.38,0.83,0.83,0.83l4.17,0
	c0.46,0,0.83-0.38,0.83-0.83v-6.67C297.92,31.21,297.54,30.83,297.08,30.83z M295,31.67c0.46,0,0.83,0.38,0.83,0.83
	s-0.38,0.83-0.83,0.83c-0.46,0-0.83-0.38-0.83-0.83S294.54,31.67,295,31.67z M295,38.33c-1.15,0-2.08-0.93-2.08-2.08
	s0.93-2.08,2.08-2.08s2.08,0.93,2.08,2.08S296.15,38.33,295,38.33z M295,35c-0.69,0-1.25,0.56-1.25,1.25s0.56,1.25,1.25,1.25
	s1.25-0.56,1.25-1.25S295.69,35,295,35z"/>
<path class="st0" d="M310,20.42c-2.07,0-3.75,1.68-3.75,3.75v2.92c0,0.69,0.56,1.25,1.25,1.25h1.25V25h-1.67v-0.83
	c0-1.61,1.3-2.92,2.92-2.92s2.92,1.3,2.92,2.92V25h-1.67v3.33h1.25c0.69,0,1.25-0.56,1.25-1.25v-2.92
	C313.75,22.1,312.07,20.42,310,20.42z"/>
<path class="st0" d="M313.75,41.25h-7.5c-0.46,0-0.83,0.38-0.83,0.83v5.83c0,0.46,0.38,0.83,0.83,0.83h7.5
	c0.46,0,0.83-0.38,0.83-0.83v-5.83C314.58,41.63,314.21,41.25,313.75,41.25z M313.75,47.92h-7.5v-5.83h7.5V47.92z M308.33,46.25
	c0-0.69,0.56-1.25,1.25-1.25c0.15,0,0.29,0.03,0.42,0.08V42.5h2.08v0.83h-1.25v2.93c-0.01,0.68-0.56,1.24-1.25,1.24
	C308.89,47.5,308.33,46.94,308.33,46.25z"/>
<path class="st0" d="M310,60.83c-2.3,0-4.17,1.87-4.17,4.17c0,2.3,1.87,4.17,4.17,4.17s4.17-1.87,4.17-4.17
	C314.17,62.7,312.3,60.83,310,60.83z M310,66.88c-1.04,0-1.88-0.84-1.88-1.88s0.84-1.88,1.88-1.88s1.88,0.84,1.88,1.88
	S311.04,66.88,310,66.88z M310,64.58c-0.23,0-0.42,0.19-0.42,0.42s0.19,0.42,0.42,0.42s0.42-0.19,0.42-0.42S310.23,64.58,310,64.58z
	"/>
<path class="st0" d="M325,11.25v3.87c-0.2-0.07-0.4-0.12-0.63-0.12c-1.04,0-1.88,0.84-1.88,1.88s0.84,1.88,1.88,1.88
	c0.96,0,1.75-0.73,1.85-1.67h0.02V12.5h1.67v-1.25H325z"/>
<path class="st0" d="M322.92,57.5h0.83v-5h-0.83V57.5z M324.58,59.17h0.83v-8.33h-0.83V59.17z M321.25,55.83h0.83v-1.67h-0.83V55.83
	z M326.25,57.5h0.83v-5h-0.83V57.5z M327.92,54.17v1.67h0.83v-1.67H327.92z"/>
<path class="st0" d="M321.35,32.56c-0.3,0.12-0.52,0.42-0.52,0.77v5c0,0.46,0.37,0.83,0.83,0.83h6.67c0.46,0,0.83-0.38,0.83-0.83v-5
	c0-0.46-0.37-0.83-0.83-0.83h-4.88l3.44-1.39l-0.28-0.69L321.35,32.56z M322.92,38.33c-0.69,0-1.25-0.56-1.25-1.25
	c0-0.69,0.56-1.25,1.25-1.25c0.69,0,1.25,0.56,1.25,1.25C324.17,37.78,323.61,38.33,322.92,38.33z M328.33,35h-0.83v-0.83h-0.83V35
	h-5v-1.67h6.67V35z"/>
<path class="st0" d="M323.33,72.08v5.83l4.58-2.92L323.33,72.08z"/>
<path class="st0" d="M337.92,42.92h4.17v1.25l1.67-1.67l-1.67-1.67v1.25h-5v2.5h0.83V42.92z M342.08,47.08h-4.17v-1.25l-1.67,1.67
	l1.67,1.67v-1.25h5v-2.5h-0.83V47.08z"/>
<path class="st0" d="M341.25,22.5h-5v0.83h5V22.5z M341.25,24.17h-5V25h5V24.17z M336.25,26.67h3.33v-0.83h-3.33V26.67z
	 M342.08,22.5v3.41c-0.13-0.05-0.27-0.07-0.42-0.07c-0.69,0-1.25,0.56-1.25,1.25c0,0.69,0.56,1.25,1.25,1.25
	c0.69,0,1.25-0.56,1.25-1.25v-3.75h1.25V22.5H342.08z"/>
<path class="st0" d="M342.08,0.83h-4.17c-0.46,0-0.83,0.38-0.83,0.83v6.67c0,0.46,0.38,0.83,0.83,0.83l4.17,0
	c0.46,0,0.83-0.38,0.83-0.83V1.67C342.92,1.21,342.54,0.83,342.08,0.83z M340,1.67c0.46,0,0.83,0.38,0.83,0.83s-0.38,0.83-0.83,0.83
	c-0.46,0-0.83-0.38-0.83-0.83S339.54,1.67,340,1.67z M340,8.33c-1.15,0-2.08-0.93-2.08-2.08s0.93-2.08,2.08-2.08
	s2.08,0.93,2.08,2.08S341.15,8.33,340,8.33z M340,5c-0.69,0-1.25,0.56-1.25,1.25S339.31,7.5,340,7.5s1.25-0.56,1.25-1.25
	S340.69,5,340,5z"/>
<path class="st0" d="M343.33,60.83h-5c-0.46,0-0.83,0.38-0.83,0.83v5c0,0.46,0.38,0.83,0.83,0.83h5c0.46,0,0.83-0.38,0.83-0.83v-5
	C344.17,61.21,343.79,60.83,343.33,60.83z M342.5,62.92h-1.25v2.29c0,0.57-0.47,1.04-1.04,1.04c-0.58,0-1.04-0.47-1.04-1.04
	c0-0.58,0.47-1.04,1.04-1.04c0.24,0,0.45,0.08,0.63,0.21v-2.3h1.67V62.92z M336.67,62.5h-0.83v5.83c0,0.46,0.38,0.83,0.83,0.83h5.83
	v-0.83h-5.83V62.5z"/>
<path class="st0" d="M355,10.42c-2.07,0-3.75,1.68-3.75,3.75v2.92c0,0.69,0.56,1.25,1.25,1.25h1.25V15h-1.67v-0.83
	c0-1.61,1.3-2.92,2.92-2.92s2.92,1.3,2.92,2.92V15h-1.67v3.33h1.25c0.69,0,1.25-0.56,1.25-1.25v-2.92
	C358.75,12.1,357.07,10.42,355,10.42z"/>
<path class="st0" d="M358.75,31.25h-7.5c-0.46,0-0.83,0.38-0.83,0.83v5.83c0,0.46,0.38,0.83,0.83,0.83h7.5
	c0.46,0,0.83-0.38,0.83-0.83v-5.83C359.58,31.63,359.21,31.25,358.75,31.25z M358.75,37.92h-7.5v-5.83h7.5V37.92z M353.33,36.25
	c0-0.69,0.56-1.25,1.25-1.25c0.15,0,0.29,0.03,0.42,0.08V32.5h2.08v0.83h-1.25v2.93c-0.01,0.68-0.56,1.24-1.25,1.24
	C353.89,37.5,353.33,36.94,353.33,36.25z"/>
<path class="st0" d="M355,50.83c-2.3,0-4.17,1.87-4.17,4.17s1.87,4.17,4.17,4.17s4.17-1.87,4.17-4.17S357.3,50.83,355,50.83z
	 M355,56.88c-1.04,0-1.88-0.84-1.88-1.88s0.84-1.88,1.88-1.88s1.88,0.84,1.88,1.88S356.04,56.88,355,56.88z M355,54.58
	c-0.23,0-0.42,0.19-0.42,0.42s0.19,0.42,0.42,0.42s0.42-0.19,0.42-0.42S355.23,54.58,355,54.58z"/>
<path class="st0" d="M355,71.25v3.87c-0.2-0.07-0.4-0.12-0.63-0.12c-1.04,0-1.88,0.84-1.88,1.88s0.84,1.88,1.88,1.88
	c0.96,0,1.75-0.73,1.85-1.67h0.02V72.5h1.67v-1.25H355z"/>
</svg>
