<!-- Generator: Adobe Illustrator 24.2.0, SVG Export Plug-In . SVG Version: 6.00 Build 0)  -->
<svg version="1.1" id="Layer_1" xmlns="http://www.w3.org/2000/svg" xmlns:xlink="http://www.w3.org/1999/xlink" x="0px" y="0px"
	 viewBox="0 0 612 219.06" style="enable-background:new 0 0 612 219.06;" xml:space="preserve">
<style type="text/css">
	.st0{fill:#7F3F98;}
	.st1{fill:#662D91;}
	.st2{fill:#1C75BC;}
</style>
<g>
	<path class="st0" d="M190.86,126.81h-16.63v-8.06h26.49v48.11h16.75v8.12h-45.09v-8.12h18.48V126.81z M194.28,95.17
		c1.08,0,2.09,0.2,3.02,0.59c0.93,0.39,1.75,0.94,2.44,1.65c0.69,0.71,1.23,1.52,1.62,2.44c0.39,0.92,0.59,1.91,0.59,3
		c0,1.05-0.2,2.04-0.59,2.97c-0.39,0.93-0.93,1.76-1.62,2.46c-0.69,0.71-1.5,1.26-2.44,1.65c-0.93,0.39-1.94,0.59-3.02,0.59
		c-1.08,0-2.09-0.2-3.02-0.59c-0.93-0.39-1.75-0.94-2.44-1.65c-0.69-0.71-1.23-1.53-1.62-2.46c-0.39-0.93-0.59-1.92-0.59-2.97
		c0-1.08,0.2-2.08,0.59-3c0.39-0.91,0.93-1.73,1.62-2.44c0.69-0.71,1.5-1.26,2.44-1.65C192.19,95.37,193.2,95.17,194.28,95.17z"/>
	<path class="st0" d="M279.3,159.63c0,1.98-0.34,3.75-1.01,5.32c-0.67,1.57-1.59,2.96-2.74,4.17c-1.16,1.21-2.5,2.25-4.03,3.11
		c-1.53,0.86-3.16,1.57-4.9,2.13c-1.74,0.56-3.52,0.97-5.35,1.23c-1.83,0.26-3.62,0.39-5.38,0.39c-3.81,0-7.31-0.17-10.5-0.5
		c-3.19-0.34-6.32-0.88-9.38-1.62v-8.96c3.29,0.93,6.55,1.64,9.8,2.13c3.25,0.49,6.48,0.73,9.69,0.73c4.67,0,8.12-0.63,10.36-1.9
		c2.24-1.27,3.36-3.08,3.36-5.43c0-1.01-0.18-1.91-0.53-2.72c-0.36-0.8-1-1.57-1.93-2.3c-0.94-0.73-2.38-1.48-4.34-2.27
		c-1.96-0.78-4.64-1.68-8.04-2.69c-2.54-0.75-4.88-1.6-7.03-2.55c-2.15-0.95-4-2.08-5.57-3.39c-1.57-1.31-2.8-2.84-3.7-4.59
		c-0.9-1.75-1.34-3.83-1.34-6.22c0-1.57,0.36-3.29,1.09-5.15c0.73-1.87,1.97-3.6,3.72-5.21c1.75-1.6,4.13-2.94,7.11-4
		c2.99-1.06,6.72-1.6,11.2-1.6c2.2,0,4.65,0.12,7.34,0.36c2.69,0.24,5.49,0.66,8.4,1.26v8.68c-3.06-0.75-5.96-1.3-8.71-1.65
		c-2.74-0.35-5.13-0.53-7.14-0.53c-2.43,0-4.47,0.19-6.13,0.56c-1.66,0.37-3.01,0.89-4.03,1.54c-1.03,0.65-1.77,1.42-2.21,2.3
		c-0.45,0.88-0.67,1.82-0.67,2.83c0,1.01,0.2,1.92,0.59,2.74c0.39,0.82,1.12,1.62,2.18,2.38c1.06,0.77,2.55,1.53,4.45,2.3
		c1.9,0.77,4.39,1.6,7.45,2.49c3.32,0.97,6.12,1.99,8.4,3.05c2.28,1.06,4.13,2.25,5.54,3.56c1.42,1.31,2.44,2.78,3.05,4.42
		C278.99,155.68,279.3,157.54,279.3,159.63z"/>
	<path class="st0" d="M341.52,172.91c-2.54,0.97-5.14,1.69-7.81,2.16c-2.67,0.47-5.42,0.7-8.26,0.7c-8.89,0-15.73-2.41-20.53-7.23
		c-4.8-4.82-7.2-11.85-7.2-21.11c0-4.44,0.69-8.48,2.07-12.1c1.38-3.62,3.32-6.72,5.83-9.3c2.5-2.58,5.49-4.56,8.96-5.96
		c3.47-1.4,7.3-2.1,11.48-2.1c2.91,0,5.64,0.21,8.18,0.62c2.54,0.41,4.97,1.08,7.28,2.02v9.3c-2.43-1.27-4.9-2.19-7.42-2.77
		c-2.52-0.58-5.13-0.87-7.81-0.87c-2.5,0-4.86,0.48-7.08,1.43c-2.22,0.95-4.17,2.32-5.85,4.12c-1.68,1.79-3.01,3.98-3.98,6.55
		s-1.46,5.49-1.46,8.74c0,6.8,1.65,11.88,4.96,15.26c3.3,3.38,7.89,5.07,13.75,5.07c2.65,0,5.22-0.3,7.7-0.9
		c2.48-0.6,4.88-1.49,7.2-2.69V172.91z"/>
	<path class="st0" d="M409.85,146.42c0,4.37-0.62,8.37-1.85,12.01c-1.23,3.64-3.01,6.76-5.32,9.35c-2.32,2.6-5.13,4.61-8.46,6.05
		c-3.32,1.44-7.09,2.16-11.31,2.16c-4.03,0-7.64-0.63-10.84-1.88c-3.19-1.25-5.9-3.09-8.12-5.52c-2.22-2.43-3.92-5.43-5.1-9.02
		c-1.18-3.58-1.76-7.71-1.76-12.38c0-4.37,0.62-8.35,1.85-11.96c1.23-3.6,3-6.7,5.32-9.3c2.31-2.59,5.13-4.61,8.46-6.05
		c3.32-1.44,7.09-2.16,11.31-2.16c4.03,0,7.65,0.63,10.84,1.88c3.19,1.25,5.9,3.08,8.12,5.49s3.92,5.4,5.1,8.99
		C409.26,137.68,409.85,141.79,409.85,146.42z M399.88,146.87c0-3.47-0.38-6.51-1.15-9.1c-0.77-2.59-1.86-4.76-3.28-6.5
		c-1.42-1.74-3.15-3.04-5.18-3.92c-2.04-0.88-4.3-1.32-6.8-1.32c-2.91,0-5.41,0.57-7.48,1.71c-2.07,1.14-3.77,2.66-5.1,4.56
		s-2.3,4.12-2.91,6.64c-0.62,2.52-0.92,5.16-0.92,7.93c0,3.47,0.38,6.52,1.15,9.13c0.77,2.61,1.86,4.79,3.28,6.52
		c1.42,1.74,3.14,3.04,5.15,3.92c2.02,0.88,4.29,1.32,6.83,1.32c2.91,0,5.4-0.57,7.48-1.71c2.07-1.14,3.77-2.66,5.1-4.56
		c1.33-1.9,2.3-4.12,2.91-6.64C399.57,152.33,399.88,149.67,399.88,146.87z"/>
	<path class="st0" d="M418.7,118.75h11.09l13.78,37.19l2.97,9.07l3.08-9.3l13.67-36.96h10.7l-22.07,56.23h-11.2L418.7,118.75z"/>
	<path class="st0" d="M534.52,143.9c0,1.38-0.02,2.54-0.06,3.47c-0.04,0.93-0.09,1.81-0.17,2.63h-39.48c0,5.75,1.6,10.17,4.82,13.25
		c3.21,3.08,7.84,4.62,13.89,4.62c1.64,0,3.29-0.06,4.93-0.2c1.64-0.13,3.23-0.31,4.76-0.53c1.53-0.22,3-0.48,4.4-0.76
		c1.4-0.28,2.7-0.59,3.89-0.92v8.01c-2.65,0.75-5.65,1.35-8.99,1.82c-3.34,0.47-6.8,0.7-10.39,0.7c-4.82,0-8.96-0.65-12.43-1.96
		c-3.47-1.31-6.32-3.2-8.54-5.68c-2.22-2.48-3.86-5.53-4.93-9.13c-1.06-3.6-1.6-7.68-1.6-12.24c0-3.96,0.57-7.7,1.71-11.23
		s2.8-6.63,4.99-9.3c2.18-2.67,4.86-4.79,8.04-6.36s6.78-2.35,10.81-2.35c3.92,0,7.39,0.62,10.42,1.85
		c3.02,1.23,5.57,2.98,7.65,5.24c2.07,2.26,3.64,5,4.7,8.23C533.99,136.29,534.52,139.9,534.52,143.9z M524.38,142.5
		c0.11-2.5-0.13-4.79-0.73-6.86c-0.6-2.07-1.52-3.85-2.77-5.35c-1.25-1.49-2.81-2.66-4.68-3.5c-1.87-0.84-4.03-1.26-6.5-1.26
		c-2.13,0-4.07,0.41-5.82,1.23c-1.76,0.82-3.27,1.98-4.54,3.47c-1.27,1.49-2.3,3.29-3.08,5.38c-0.78,2.09-1.27,4.39-1.46,6.89
		H524.38z"/>
	<path class="st0" d="M552.39,118.75h8.9l0.28,10.36c3.32-4,6.6-6.89,9.83-8.68c3.23-1.79,6.49-2.69,9.77-2.69
		c5.83,0,10.24,1.89,13.25,5.66c3,3.77,4.4,9.37,4.17,16.8h-9.86c0.11-4.93-0.61-8.5-2.16-10.73c-1.55-2.22-3.82-3.33-6.8-3.33
		c-1.31,0-2.62,0.23-3.95,0.7c-1.33,0.47-2.69,1.21-4.09,2.24c-1.4,1.03-2.88,2.34-4.45,3.95c-1.57,1.61-3.25,3.55-5.04,5.82v36.12
		h-9.86V118.75z"/>
</g>
<path class="st1" d="M71.35,236.01"/>
<path class="st1" d="M430.16,103.09l0.01,0.02c0.18-0.07,0.35-0.15,0.52-0.22C430.51,102.96,430.33,103.03,430.16,103.09z"/>
<g>
	<path class="st2" d="M48.76,117.62V37.54h19.23c10.36,0,19.02,1.54,26,4.61c6.97,3.08,12.54,7.56,16.69,13.46
		c4.15,5.9,7.1,13.1,8.85,21.61c0.47,2.28,0.86,4.64,1.21,7.08c13.93-5.39,27.09-9.91,39.02-13.61c-0.77-3.8-1.69-7.42-2.76-10.86
		c-3.85-12.31-9.61-22.46-17.31-30.46c-7.69-8-17.31-13.92-28.84-17.77c-11.54-3.85-25-5.77-40.38-5.77H10.92v134.63
		C23.38,132.18,36.08,124.57,48.76,117.62z"/>
	<g>
		<g>
			<path class="st1" d="M161.4,80.87c-13.5,6.33-26.66,13.99-39.3,22.47c0.01,0.98,0.03,1.96,0.03,2.96
				c0,23.79-4.82,41.23-14.46,52.3c-9.64,11.08-23.74,16.61-42.3,16.61H48.76v31.69h13.23c17.74,0,32.97-2.43,45.69-7.31
				c12.72-4.87,23.15-11.79,31.3-20.77c8.15-8.97,14.15-19.82,18-32.53c3.85-12.71,5.77-26.87,5.77-42.46
				C162.75,95.63,162.3,87.98,161.4,80.87z"/>
			<path class="st1" d="M161.4,80.87c-13.5,6.33-26.66,13.99-39.3,22.47c0.01,0.98,0.03,1.96,0.03,2.96
				c0,23.79-4.82,41.23-14.46,52.3c-9.64,11.08-23.74,16.61-42.3,16.61H48.76v31.69h13.23c17.74,0,32.97-2.43,45.69-7.31
				c12.72-4.87,23.15-11.79,31.3-20.77c8.15-8.97,14.15-19.82,18-32.53c3.85-12.71,5.77-26.87,5.77-42.46
				C162.75,95.63,162.3,87.98,161.4,80.87z"/>
			<path class="st0" d="M161.4,80.87c-13.5,6.33-26.66,13.99-39.3,22.47c0.01,0.98,0.03,1.96,0.03,2.96
				c0,23.79-4.82,41.23-14.46,52.3c-9.64,11.08-23.74,16.61-42.3,16.61H48.76v31.69h13.23c17.74,0,32.97-2.43,45.69-7.31
				c12.72-4.87,23.15-11.79,31.3-20.77c8.15-8.97,14.15-19.82,18-32.53c3.85-12.71,5.77-26.87,5.77-42.46
				C162.75,95.63,162.3,87.98,161.4,80.87z"/>
		</g>
		<polygon class="st0" points="10.92,191.06 48.76,166.68 48.76,215.43 		"/>
	</g>
</g>
<path class="st0" d="M85.28,286.98c33.14,0,60,35.82,60,80h15c0-55.23-33.58-100-75-100s-75,44.77-75,100h15
	C25.28,322.8,52.14,286.98,85.28,286.98z"/>
<path class="st0" d="M31.13,413.12l-11.78,0.62c-5.7,0.3-10.57-4.08-10.87-9.79l-1.85-35.27c-0.3-5.7,4.08-10.57,9.79-10.87
	l11.78-0.62c5.7-0.3,10.57,4.08,10.87,9.79l1.85,35.27C41.21,407.96,36.83,412.82,31.13,413.12z"/>
<path class="st0" d="M151.31,413.74l-11.78-0.62c-5.7-0.3-10.09-5.17-9.79-10.87l1.85-35.27c0.3-5.7,5.17-10.09,10.87-9.79
	l11.78,0.62c5.7,0.3,10.09,5.17,9.79,10.87l-1.85,35.27C161.89,409.66,157.02,414.04,151.31,413.74z"/>
<path class="st1" d="M323.66,306.27"/>
<g>
	<path class="st2" d="M273.11,325.69v-43.68h10.49c5.65,0,10.37,0.84,14.18,2.52c3.8,1.68,6.84,4.13,9.1,7.34
		c2.27,3.22,3.87,7.15,4.82,11.79c0.25,1.24,0.47,2.53,0.66,3.86c7.6-2.94,14.77-5.4,21.28-7.42c-0.42-2.07-0.92-4.05-1.51-5.92
		c-2.1-6.71-5.24-12.25-9.44-16.61c-4.19-4.36-9.44-7.59-15.73-9.69c-6.29-2.1-13.63-3.15-22.02-3.15h-32.47v73.43
		C259.26,333.63,266.19,329.48,273.11,325.69z"/>
	<g>
		<path class="st0" d="M334.54,305.64c-7.37,3.45-14.54,7.63-21.43,12.25c0.01,0.53,0.02,1.07,0.02,1.61
			c0,12.98-2.63,22.48-7.89,28.53c-5.26,6.04-12.95,9.06-23.07,9.06h-9.06v17.28h7.22c9.68,0,17.98-1.33,24.92-3.99
			c6.93-2.66,12.63-6.43,17.07-11.33c4.45-4.89,7.72-10.81,9.82-17.74c2.1-6.93,3.15-14.65,3.15-23.16
			C335.28,313.69,335.03,309.52,334.54,305.64z"/>
		<path class="st1" d="M334.54,305.64c-7.37,3.45-14.54,7.63-21.43,12.25c0.01,0.53,0.02,1.07,0.02,1.61
			c0,12.98-2.63,22.48-7.89,28.53c-5.26,6.04-12.95,9.06-23.07,9.06h-9.06v17.28h7.22c9.68,0,17.98-1.33,24.92-3.99
			c6.93-2.66,12.63-6.43,17.07-11.33c4.45-4.89,7.72-10.81,9.82-17.74c2.1-6.93,3.15-14.65,3.15-23.16
			C335.28,313.69,335.03,309.52,334.54,305.64z"/>
		<path class="st0" d="M334.54,305.64c-7.37,3.45-14.54,7.63-21.43,12.25c0.01,0.53,0.02,1.07,0.02,1.61
			c0,12.98-2.63,22.48-7.89,28.53c-5.26,6.04-12.95,9.06-23.07,9.06h-9.06v17.28h7.22c9.68,0,17.98-1.33,24.92-3.99
			c6.93-2.66,12.63-6.43,17.07-11.33c4.45-4.89,7.72-10.81,9.82-17.74c2.1-6.93,3.15-14.65,3.15-23.16
			C335.28,313.69,335.03,309.52,334.54,305.64z"/>
	</g>
	<polygon class="st0" points="252.47,365.74 273.11,352.44 273.11,379.03 	"/>
</g>
</svg>
