<!-- Generator: Adobe Illustrator 24.2.0, SVG Export Plug-In . SVG Version: 6.00 Build 0)  -->
<svg version="1.1" id="Layer_1" xmlns="http://www.w3.org/2000/svg" xmlns:xlink="http://www.w3.org/1999/xlink" x="0px" y="0px"
	 viewBox="0 0 612 219.06" style="enable-background:new 0 0 612 219.06;" xml:space="preserve">
<style type="text/css">
	.st0{fill:#662D91;}
	.st1{fill:#1C75BC;}
	.st2{fill:#7F3F98;}
	.st3{font-family:'Consolas-Bold';}
	.st4{font-size:114.7021px;}
</style>
<path class="st0" d="M430.16,103.09l0.01,0.02c0.18-0.07,0.35-0.15,0.52-0.22C430.51,102.96,430.33,103.03,430.16,103.09z"/>
<g>
	<path class="st1" d="M48.76,117.62V37.54h19.23c10.36,0,19.02,1.54,26,4.61c6.97,3.08,12.54,7.56,16.69,13.46
		c4.15,5.9,7.1,13.1,8.85,21.61c0.47,2.28,0.86,4.64,1.21,7.08c13.93-5.39,27.09-9.91,39.02-13.61c-0.77-3.8-1.69-7.42-2.76-10.86
		c-3.85-12.31-9.61-22.46-17.31-30.46c-7.69-8-17.31-13.92-28.84-17.77c-11.54-3.85-25-5.77-40.38-5.77H10.92v134.63
		C23.38,132.18,36.08,124.57,48.76,117.62z"/>
	<g>
		<g>
			<path class="st0" d="M161.4,80.87c-13.5,6.33-26.66,13.99-39.3,22.47c0.01,0.98,0.03,1.96,0.03,2.96
				c0,23.79-4.82,41.23-14.46,52.3c-9.64,11.08-23.74,16.61-42.3,16.61H48.76v31.69h13.23c17.74,0,32.97-2.43,45.69-7.31
				c12.72-4.87,23.15-11.79,31.3-20.77c8.15-8.97,14.15-19.82,18-32.53c3.85-12.71,5.77-26.87,5.77-42.46
				C162.75,95.63,162.3,87.98,161.4,80.87z"/>
			<path class="st0" d="M161.4,80.87c-13.5,6.33-26.66,13.99-39.3,22.47c0.01,0.98,0.03,1.96,0.03,2.96
				c0,23.79-4.82,41.23-14.46,52.3c-9.64,11.08-23.74,16.61-42.3,16.61H48.76v31.69h13.23c17.74,0,32.97-2.43,45.69-7.31
				c12.72-4.87,23.15-11.79,31.3-20.77c8.15-8.97,14.15-19.82,18-32.53c3.85-12.71,5.77-26.87,5.77-42.46
				C162.75,95.63,162.3,87.98,161.4,80.87z"/>
			<path class="st2" d="M161.4,80.87c-13.5,6.33-26.66,13.99-39.3,22.47c0.01,0.98,0.03,1.96,0.03,2.96
				c0,23.79-4.82,41.23-14.46,52.3c-9.64,11.08-23.74,16.61-42.3,16.61H48.76v31.69h13.23c17.74,0,32.97-2.43,45.69-7.31
				c12.72-4.87,23.15-11.79,31.3-20.77c8.15-8.97,14.15-19.82,18-32.53c3.85-12.71,5.77-26.87,5.77-42.46
				C162.75,95.63,162.3,87.98,161.4,80.87z"/>
		</g>
		<polygon class="st2" points="10.92,191.06 48.76,166.68 48.76,215.43 		"/>
	</g>
</g>
<text transform="matrix(1 0 0 1 162.6624 174.9801)" class="st2 st3 st4">iscover</text>
</svg>
