<!-- Generator: Adobe Illustrator 24.2.0, SVG Export Plug-In . SVG Version: 6.00 Build 0)  -->
<svg version="1.1" id="Layer_1" xmlns="http://www.w3.org/2000/svg" xmlns:xlink="http://www.w3.org/1999/xlink" x="0px" y="0px"
	 viewBox="0 0 612 219.06" style="enable-background:new 0 0 612 219.06;" xml:space="preserve">
<style type="text/css">
	.st0{fill:#662D91;}
	.st1{fill:#1C75BC;}
	.st2{fill:#7F3F98;}
</style>
<path class="st0" d="M430.16,103.09l0.01,0.02c0.18-0.07,0.35-0.15,0.52-0.22C430.51,102.96,430.33,103.03,430.16,103.09z"/>
<g>
	<path class="st1" d="M48.76,117.62V37.54h19.23c10.36,0,19.02,1.54,26,4.61c6.97,3.08,12.54,7.56,16.69,13.46
		c4.15,5.9,7.1,13.1,8.85,21.61c0.47,2.28,0.86,4.64,1.21,7.08c13.93-5.39,27.09-9.91,39.02-13.61c-0.77-3.8-1.69-7.42-2.76-10.86
		c-3.85-12.31-9.61-22.46-17.31-30.46c-7.69-8-17.31-13.92-28.84-17.77c-11.54-3.85-25-5.77-40.38-5.77H10.92v134.63
		C23.38,132.18,36.08,124.57,48.76,117.62z"/>
	<g>
		<g>
			<path class="st0" d="M161.4,80.87c-13.5,6.33-26.66,13.99-39.3,22.47c0.01,0.98,0.03,1.96,0.03,2.96
				c0,23.79-4.82,41.23-14.46,52.3c-9.64,11.08-23.74,16.61-42.3,16.61H48.76v31.69h13.23c17.74,0,32.97-2.43,45.69-7.31
				c12.72-4.87,23.15-11.79,31.3-20.77c8.15-8.97,14.15-19.82,18-32.53c3.85-12.71,5.77-26.87,5.77-42.46
				C162.75,95.63,162.3,87.98,161.4,80.87z"/>
			<path class="st0" d="M161.4,80.87c-13.5,6.33-26.66,13.99-39.3,22.47c0.01,0.98,0.03,1.96,0.03,2.96
				c0,23.79-4.82,41.23-14.46,52.3c-9.64,11.08-23.74,16.61-42.3,16.61H48.76v31.69h13.23c17.74,0,32.97-2.43,45.69-7.31
				c12.72-4.87,23.15-11.79,31.3-20.77c8.15-8.97,14.15-19.82,18-32.53c3.85-12.71,5.77-26.87,5.77-42.46
				C162.75,95.63,162.3,87.98,161.4,80.87z"/>
			<path class="st2" d="M161.4,80.87c-13.5,6.33-26.66,13.99-39.3,22.47c0.01,0.98,0.03,1.96,0.03,2.96
				c0,23.79-4.82,41.23-14.46,52.3c-9.64,11.08-23.74,16.61-42.3,16.61H48.76v31.69h13.23c17.74,0,32.97-2.43,45.69-7.31
				c12.72-4.87,23.15-11.79,31.3-20.77c8.15-8.97,14.15-19.82,18-32.53c3.85-12.71,5.77-26.87,5.77-42.46
				C162.75,95.63,162.3,87.98,161.4,80.87z"/>
		</g>
		<polygon class="st2" points="10.92,191.06 48.76,166.68 48.76,215.43 		"/>
	</g>
</g>
<g>
	<path class="st2" d="M190.78,126.81h-16.63v-8.06h26.49v48.11h16.75v8.12H172.3v-8.12h18.48V126.81z M194.19,95.17
		c1.08,0,2.09,0.2,3.02,0.59c0.93,0.39,1.75,0.94,2.44,1.65c0.69,0.71,1.23,1.52,1.62,2.44c0.39,0.92,0.59,1.91,0.59,3
		c0,1.05-0.2,2.04-0.59,2.97c-0.39,0.93-0.93,1.76-1.62,2.46c-0.69,0.71-1.5,1.26-2.44,1.65c-0.93,0.39-1.94,0.59-3.02,0.59
		c-1.08,0-2.09-0.2-3.02-0.59c-0.93-0.39-1.75-0.94-2.44-1.65c-0.69-0.71-1.23-1.53-1.62-2.46c-0.39-0.93-0.59-1.92-0.59-2.97
		c0-1.08,0.2-2.08,0.59-3c0.39-0.91,0.93-1.73,1.62-2.44c0.69-0.71,1.5-1.26,2.44-1.65C192.1,95.37,193.11,95.17,194.19,95.17z"/>
	<path class="st2" d="M253.84,103.85h-16.63v-8.01h26.49v71.02h16.75v8.12h-45.09v-8.12h18.48V103.85z"/>
	<path class="st2" d="M342.95,174.98h-8.74l-0.34-9.07c-1.68,1.94-3.28,3.56-4.79,4.84c-1.51,1.29-3.02,2.32-4.51,3.11
		s-3,1.33-4.51,1.65c-1.51,0.32-3.11,0.48-4.79,0.48c-5.79,0-10.16-1.7-13.1-5.1c-2.95-3.4-4.42-8.53-4.42-15.4v-36.74h9.74v35.96
		c0,8.63,3.25,12.94,9.75,12.94c1.2,0,2.36-0.18,3.5-0.53c1.14-0.35,2.33-0.97,3.58-1.85c1.25-0.88,2.59-2.06,4.03-3.56
		c1.44-1.49,3.05-3.38,4.84-5.66v-37.3h9.75V174.98z"/>
	<path class="st2" d="M406.12,174.2c-2.2,0.56-4.48,0.96-6.83,1.2c-2.35,0.24-4.74,0.36-7.17,0.36c-7.06,0-12.32-1.6-15.79-4.79
		c-3.47-3.19-5.21-8.09-5.21-14.7v-29.35h-15.74v-8.18h15.74v-15.46l9.75-2.52v17.98h25.26v8.18h-25.26v28.56
		c0,4.03,1.07,7.05,3.22,9.04c2.15,2,5.31,3,9.49,3c1.79,0,3.75-0.14,5.88-0.42c2.13-0.28,4.35-0.72,6.67-1.32V174.2z"/>
	<path class="st2" d="M443.03,126.81H426.4v-8.06h26.49v48.11h16.75v8.12h-45.09v-8.12h18.48V126.81z M446.45,95.17
		c1.08,0,2.09,0.2,3.02,0.59c0.93,0.39,1.74,0.94,2.44,1.65c0.69,0.71,1.23,1.52,1.63,2.44c0.39,0.92,0.59,1.91,0.59,3
		c0,1.05-0.2,2.04-0.59,2.97c-0.39,0.93-0.93,1.76-1.63,2.46c-0.69,0.71-1.5,1.26-2.44,1.65c-0.93,0.39-1.94,0.59-3.02,0.59
		c-1.08,0-2.09-0.2-3.02-0.59c-0.93-0.39-1.75-0.94-2.44-1.65c-0.69-0.71-1.23-1.53-1.62-2.46c-0.39-0.93-0.59-1.92-0.59-2.97
		c0-1.08,0.2-2.08,0.59-3c0.39-0.91,0.93-1.73,1.62-2.44c0.69-0.71,1.5-1.26,2.44-1.65C444.36,95.37,445.37,95.17,446.45,95.17z"/>
	<path class="st2" d="M535.89,146.42c0,4.37-0.62,8.37-1.85,12.01c-1.23,3.64-3.01,6.76-5.32,9.35c-2.32,2.6-5.13,4.61-8.46,6.05
		c-3.32,1.44-7.09,2.16-11.31,2.16c-4.03,0-7.64-0.63-10.84-1.88c-3.19-1.25-5.9-3.09-8.12-5.52c-2.22-2.43-3.92-5.43-5.1-9.02
		c-1.18-3.58-1.76-7.71-1.76-12.38c0-4.37,0.62-8.35,1.85-11.96c1.23-3.6,3-6.7,5.32-9.3c2.31-2.59,5.13-4.61,8.46-6.05
		c3.32-1.44,7.09-2.16,11.31-2.16c4.03,0,7.65,0.63,10.84,1.88c3.19,1.25,5.9,3.08,8.12,5.49s3.92,5.4,5.1,8.99
		C535.3,137.68,535.89,141.79,535.89,146.42z M525.92,146.87c0-3.47-0.38-6.51-1.15-9.1c-0.77-2.59-1.86-4.76-3.28-6.5
		c-1.42-1.74-3.15-3.04-5.18-3.92c-2.04-0.88-4.3-1.32-6.8-1.32c-2.91,0-5.41,0.57-7.48,1.71c-2.07,1.14-3.77,2.66-5.1,4.56
		s-2.3,4.12-2.91,6.64c-0.62,2.52-0.92,5.16-0.92,7.93c0,3.47,0.38,6.52,1.15,9.13c0.77,2.61,1.86,4.79,3.28,6.52
		c1.42,1.74,3.14,3.04,5.15,3.92c2.02,0.88,4.29,1.32,6.83,1.32c2.91,0,5.4-0.57,7.48-1.71c2.07-1.14,3.77-2.66,5.1-4.56
		c1.33-1.9,2.3-4.12,2.91-6.64C525.61,152.33,525.92,149.67,525.92,146.87z"/>
	<path class="st2" d="M550.01,118.75h8.68l0.39,9.07c1.64-1.94,3.23-3.56,4.76-4.84c1.53-1.29,3.03-2.32,4.51-3.11
		c1.47-0.78,2.98-1.33,4.51-1.65c1.53-0.32,3.12-0.48,4.76-0.48c5.79,0,10.17,1.71,13.13,5.13c2.97,3.42,4.45,8.56,4.45,15.43v36.68
		h-9.75v-35.9c0-4.41-0.82-7.66-2.46-9.77c-1.64-2.11-4.09-3.16-7.34-3.16c-1.2,0-2.36,0.18-3.5,0.53
		c-1.14,0.36-2.33,0.97-3.56,1.85c-1.23,0.88-2.57,2.06-4,3.56c-1.44,1.49-3.05,3.36-4.84,5.6v37.3h-9.75V118.75z"/>
</g>
</svg>
