<!-- Generator: Adobe Illustrator 24.2.0, SVG Export Plug-In . SVG Version: 6.00 Build 0)  -->
<svg version="1.1" id="Layer_1" xmlns="http://www.w3.org/2000/svg" xmlns:xlink="http://www.w3.org/1999/xlink" x="0px" y="0px"
	 viewBox="0 0 172.87 159.32" style="enable-background:new 0 0 172.87 159.32;" xml:space="preserve">
<style type="text/css">
	.st0{fill:#662D91;}
	.st1{fill:#1C75BC;}
	.st2{fill:#7F3F98;}
</style>
<path class="st2" d="M85.28,24.26c33.14,0,60,35.82,60,80h15c0-55.23-33.58-100-75-100s-75,44.77-75,100h15
	C25.28,60.07,52.14,24.26,85.28,24.26z"/>
<path class="st2" d="M31.13,150.4l-11.78,0.62c-5.7,0.3-10.57-4.08-10.87-9.79l-1.85-35.27c-0.3-5.7,4.08-10.57,9.79-10.87
	l11.78-0.62c5.7-0.3,10.57,4.08,10.87,9.79l1.85,35.27C41.21,145.23,36.83,150.1,31.13,150.4z"/>
<path class="st2" d="M151.31,151.02l-11.78-0.62c-5.7-0.3-10.09-5.17-9.79-10.87l1.85-35.27c0.3-5.7,5.17-10.09,10.87-9.79
	l11.78,0.62c5.7,0.3,10.09,5.17,9.79,10.87l-1.85,35.27C161.89,146.93,157.02,151.32,151.31,151.02z"/>
</svg>
