<!-- Generator: Adobe Illustrator 24.2.0, SVG Export Plug-In . SVG Version: 6.00 Build 0)  -->
<svg version="1.1" id="Layer_1" xmlns="http://www.w3.org/2000/svg" xmlns:xlink="http://www.w3.org/1999/xlink" x="0px" y="0px"
	 viewBox="0 0 89.38 116.31" style="enable-background:new 0 0 89.38 116.31;" xml:space="preserve">
<style type="text/css">
	.st0{fill:#662D91;}
	.st1{fill:#1C75BC;}
	.st2{fill:#7F3F98;}
	.st3{fill:#FFFFFF;}
</style>
<g>
	<path class="st3" d="M22.64,62.96V19.28h10.49c5.65,0,10.37,0.84,14.18,2.52c3.8,1.68,6.84,4.13,9.1,7.34
		c2.27,3.22,3.87,7.15,4.82,11.79c0.25,1.24,0.47,2.53,0.66,3.86c7.6-2.94,14.77-5.4,21.28-7.42c-0.42-2.07-0.92-4.05-1.51-5.92
		c-2.1-6.71-5.24-12.25-9.44-16.61c-4.19-4.36-9.44-7.59-15.73-9.69C50.2,3.05,42.86,2,34.47,2H2v73.43
		C8.8,70.9,15.72,66.75,22.64,62.96z"/>
	<g>
		<g>
			<path class="st0" d="M84.07,42.92c-7.37,3.45-14.54,7.63-21.43,12.25c0.01,0.53,0.02,1.07,0.02,1.61
				c0,12.98-2.63,22.48-7.89,28.53c-5.26,6.04-12.95,9.06-23.07,9.06h-9.06v17.28h7.22c9.68,0,17.98-1.33,24.92-3.99
				c6.93-2.66,12.63-6.43,17.07-11.33c4.45-4.89,7.72-10.81,9.82-17.74c2.1-6.93,3.15-14.65,3.15-23.16
				C84.81,50.97,84.56,46.8,84.07,42.92z"/>
			<path class="st0" d="M84.07,42.92c-7.37,3.45-14.54,7.63-21.43,12.25c0.01,0.53,0.02,1.07,0.02,1.61
				c0,12.98-2.63,22.48-7.89,28.53c-5.26,6.04-12.95,9.06-23.07,9.06h-9.06v17.28h7.22c9.68,0,17.98-1.33,24.92-3.99
				c6.93-2.66,12.63-6.43,17.07-11.33c4.45-4.89,7.72-10.81,9.82-17.74c2.1-6.93,3.15-14.65,3.15-23.16
				C84.81,50.97,84.56,46.8,84.07,42.92z"/>
			<path class="st3" d="M84.07,42.92c-7.37,3.45-14.54,7.63-21.43,12.25c0.01,0.53,0.02,1.07,0.02,1.61
				c0,12.98-2.63,22.48-7.89,28.53c-5.26,6.04-12.95,9.06-23.07,9.06h-9.06v17.28h7.22c9.68,0,17.98-1.33,24.92-3.99
				c6.93-2.66,12.63-6.43,17.07-11.33c4.45-4.89,7.72-10.81,9.82-17.74c2.1-6.93,3.15-14.65,3.15-23.16
				C84.81,50.97,84.56,46.8,84.07,42.92z"/>
		</g>
		<polygon class="st3" points="2,103.01 22.64,89.72 22.64,116.31 		"/>
	</g>
</g>
</svg>
